<?xml version="1.0" encoding="utf-8"?>
<!-- Generator: Adobe Illustrator 21.1.0, SVG Export Plug-In . SVG Version: 6.00 Build 0)  -->
<svg version="1.1" id="Layer_1" xmlns="http://www.w3.org/2000/svg" xmlns:xlink="http://www.w3.org/1999/xlink" x="0px" y="0px"
	 viewBox="0 0 1200 50.5" style="enable-background:new 0 0 1200 50.5;" xml:space="preserve">
<style type="text/css">
	.st0{fill:#FFFFFF;}
	.st1{fill:#F70830;}
	.st2{fill:#0C18F2;}
	.st3{fill:#1AAA0B;}
	.st4{fill:#F4DD08;}
	.st5{fill:#EFAC35;}
	.st6{fill:#FFFFFF;fill-opacity:0;}
</style>
<g>
	<rect x="0.5" y="0.5" class="st0" width="299" height="49"/>
	<path d="M299,1v48H1V1H299 M300,0H0v50h300V0L300,0z"/>
</g>
<g>
	<rect x="0.5" y="0.5" class="st0" width="299" height="49"/>
	<path d="M299,1v48H1V1H299 M300,0H0v50h300V0L300,0z"/>
</g>
<g>
	<rect x="0.5" y="50.5" class="st0" width="299" height="49"/>
	<path d="M299,51v48H1V51H299 M300,50H0v50h300V50L300,50z"/>
</g>
<g>
	<rect x="0.5" y="0.5" class="st0" width="299" height="49"/>
	<path d="M299,1v48H1V1H299 M300,0H0v50h300V0L300,0z"/>
</g>
<g>
	<rect x="0.5" y="50.5" class="st0" width="299" height="49"/>
	<path d="M299,51v48H1V51H299 M300,50H0v50h300V50L300,50z"/>
</g>
<g>
	<rect x="0.5" y="0.5" class="st0" width="157" height="49"/>
	<path d="M157,1v48H1V1H157 M158,0H0v50h158V0L158,0z"/>
</g>
<g>
	<rect x="0.5" y="50.5" class="st0" width="157" height="49"/>
	<path d="M157,51v48H1V51H157 M158,50H0v50h158V50L158,50z"/>
</g>
<g>
	<rect x="0.5" y="0.5" class="st0" width="78" height="49"/>
	<path d="M78,1v48H1V1H78 M79,0H0v50h79V0L79,0z"/>
</g>
<g>
	<rect x="0.5" y="50.5" class="st0" width="78" height="49"/>
	<path d="M78,51v48H1V51H78 M79,50H0v50h79V50L79,50z"/>
</g>
<g>
	<rect x="0.5" y="0.5" class="st1" width="38" height="24"/>
	<g>
		<path d="M38,1v23H1V1H38 M39,0H0v25h39V0L39,0z"/>
	</g>
</g>
<g>
	<rect x="0.5" y="25.5" class="st1" width="38" height="24"/>
	<path d="M38,26v23H1V26H38 M39,25H0v25h39V25L39,25z"/>
</g>
<g>
	<rect x="39.5" y="0.5" class="st1" width="39" height="24"/>
	<path d="M78,1v23H40V1H78 M79,0H39v25h40V0L79,0z"/>
</g>
<g>
	<rect x="39.5" y="25.5" class="st1" width="39" height="24"/>
	<path d="M78,26v23H40V26H78 M79,25H39v25h40V25L79,25z"/>
</g>
<g>
	<rect x="0.5" y="75.5" class="st2" width="38" height="24"/>
	<path d="M38,76v23H1V76H38 M39,75H0v25h39V75L39,75z"/>
</g>
<g>
	<rect x="0.5" y="50.5" class="st2" width="38" height="24"/>
	<path d="M38,51v23H1V51H38 M39,50H0v25h39V50L39,50z"/>
</g>
<g>
	<rect x="39.5" y="50.5" class="st2" width="39" height="24"/>
	<path d="M78,51v23H40V51H78 M79,50H39v25h40V50L79,50z"/>
</g>
<g>
	<rect x="39.5" y="75.5" class="st2" width="39" height="24"/>
	<path d="M78,76v23H40V76H78 M79,75H39v25h40V75L79,75z"/>
</g>
<g>
	<rect x="79.5" y="50.5" class="st3" width="42" height="24"/>
	<path d="M121,51v23H80V51H121 M122,50H79v25h43V50L122,50z"/>
</g>
<g>
	<rect x="79.5" y="75.5" class="st3" width="42" height="24"/>
	<path d="M121,76v23H80V76H121 M122,75H79v25h43V75L122,75z"/>
</g>
<g>
	<rect x="122.5" y="75.5" class="st3" width="35" height="24"/>
	<path d="M157,76v23h-34V76H157 M158,75h-36v25h36V75L158,75z"/>
</g>
<g>
	<rect x="122.5" y="50.5" class="st3" width="35" height="24"/>
	<path d="M157,51v23h-34V51H157 M158,50h-36v25h36V50L158,50z"/>
</g>
<g>
	<rect x="79.5" y="0.5" class="st4" width="42" height="24"/>
	<path d="M121,1v23H80V1H121 M122,0H79v25h43V0L122,0z"/>
</g>
<g>
	<rect x="79.5" y="25.5" class="st4" width="42" height="24"/>
	<path d="M121,26v23H80V26H121 M122,25H79v25h43V25L122,25z"/>
</g>
<g>
	<rect x="122.5" y="25.5" class="st4" width="35" height="24"/>
	<path d="M157,26v23h-34V26H157 M158,25h-36v25h36V25L158,25z"/>
</g>
<g>
	<rect x="122.5" y="0.5" class="st4" width="35" height="24"/>
	<path d="M157,1v23h-34V1H157 M158,0h-36v25h36V0L158,0z"/>
</g>
<g>
	<rect x="158.5" y="0.5" class="st0" width="74" height="24"/>
	<path d="M232,1v23h-73V1H232 M233,0h-75v25h75V0L233,0z"/>
</g>
<g>
	<rect x="158.5" y="25.5" class="st0" width="74" height="24"/>
	<path d="M232,26v23h-73V26H232 M233,25h-75v25h75V25L233,25z"/>
</g>
<g>
	<rect x="233.5" y="25.5" class="st0" width="66" height="24"/>
	<path d="M299,26v23h-65V26H299 M300,25h-67v25h67V25L300,25z"/>
</g>
<g>
	<rect x="233.5" y="0.5" class="st0" width="66" height="24"/>
	<path d="M299,1v23h-65V1H299 M300,0h-67v25h67V0L300,0z"/>
</g>
<g>
	<rect x="158.5" y="0.5" class="st0" width="36" height="24"/>
	<path d="M194,1v23h-35V1H194 M195,0h-37v25h37V0L195,0z"/>
</g>
<g>
	<rect x="195.5" y="0.5" class="st0" width="37" height="24"/>
	<path d="M232,1v23h-36V1H232 M233,0h-38v25h38V0L233,0z"/>
</g>
<g>
	<rect x="158.5" y="25.5" class="st0" width="36" height="24"/>
	<path d="M194,26v23h-35V26H194 M195,25h-37v25h37V25L195,25z"/>
</g>
<g>
	<rect x="195.5" y="25.5" class="st0" width="37" height="24"/>
	<path d="M232,26v23h-36V26H232 M233,25h-38v25h38V25L233,25z"/>
</g>
<g>
	<rect x="158.5" y="75.5" class="st5" width="74" height="24"/>
	<path d="M232,76v23h-73V76H232 M233,75h-75v25h75V75L233,75z"/>
</g>
<g>
	<rect x="158.5" y="50.5" class="st5" width="74" height="24"/>
	<path d="M232,51v23h-73V51H232 M233,50h-75v25h75V50L233,50z"/>
</g>
<g>
	<rect x="158.5" y="75.5" class="st5" width="36" height="24"/>
	<path d="M194,76v23h-35V76H194 M195,75h-37v25h37V75L195,75z"/>
</g>
<g>
	<rect x="195.5" y="50.5" class="st5" width="37" height="24"/>
	<path d="M232,51v23h-36V51H232 M233,50h-38v25h38V50L233,50z"/>
</g>
<g>
	<rect x="266.5" y="75.5" class="st1" width="33" height="24"/>
	<path d="M299,76v23h-32V76H299 M300,75h-34v25h34V75L300,75z"/>
</g>
<g>
	<rect x="233.5" y="75.5" class="st1" width="32" height="24"/>
	<path d="M265,76v23h-31V76H265 M266,75h-33v25h33V75L266,75z"/>
</g>
<g>
	<rect x="233.5" y="50.5" class="st1" width="32" height="24"/>
	<path d="M265,51v23h-31V51H265 M266,50h-33v25h33V50L266,50z"/>
</g>
<g>
	<rect x="266.5" y="50.5" class="st1" width="33" height="24"/>
	<path d="M299,51v23h-32V51H299 M300,50h-34v25h34V50L300,50z"/>
</g>
<g>
	<rect x="233.5" y="0.5" class="st2" width="32" height="24"/>
	<path d="M265,1v23h-31V1H265 M266,0h-33v25h33V0L266,0z"/>
</g>
<g>
	<rect x="266.5" y="0.5" class="st2" width="33" height="24"/>
	<path d="M299,1v23h-32V1H299 M300,0h-34v25h34V0L300,0z"/>
</g>
<g>
	<rect x="266.5" y="25.5" class="st2" width="33" height="24"/>
	<path d="M299,26v23h-32V26H299 M300,25h-34v25h34V25L300,25z"/>
</g>
<g>
	<rect x="233.5" y="25.5" class="st2" width="32" height="23"/>
	<path d="M265,26v22h-31V26H265 M266,25h-33v24h33V25L266,25z"/>
</g>
<g>
	<rect x="301.5" y="0.5" class="st0" width="299" height="49"/>
	<path d="M600,1v48H302V1H600 M601,0H301v50h300V0L601,0z"/>
</g>
<g>
	<rect x="301.5" y="0.5" class="st0" width="299" height="49"/>
	<path d="M600,1v48H302V1H600 M601,0H301v50h300V0L601,0z"/>
</g>
<g>
	<rect x="301.5" y="50.5" class="st0" width="299" height="49"/>
	<path d="M600,51v48H302V51H600 M601,50H301v50h300V50L601,50z"/>
</g>
<g>
	<rect x="301.5" y="0.5" class="st0" width="299" height="49"/>
	<path d="M600,1v48H302V1H600 M601,0H301v50h300V0L601,0z"/>
</g>
<g>
	<rect x="301.5" y="50.5" class="st0" width="299" height="49"/>
	<path d="M600,51v48H302V51H600 M601,50H301v50h300V50L601,50z"/>
</g>
<g>
	<rect x="301.5" y="0.5" class="st5" width="157" height="49"/>
	<path d="M458,1v48H302V1H458 M459,0H301v50h158V0L459,0z"/>
</g>
<g>
	<rect x="301.5" y="50.5" class="st0" width="157" height="49"/>
	<path d="M458,51v48H302V51H458 M459,50H301v50h158V50L459,50z"/>
</g>
<g>
	<rect x="301.5" y="0.5" class="st0" width="78" height="49"/>
	<path d="M379,1v48h-77V1H379 M380,0h-79v50h79V0L380,0z"/>
</g>
<g>
	<rect x="301.5" y="50.5" class="st0" width="78" height="49"/>
	<path d="M379,51v48h-77V51H379 M380,50h-79v50h79V50L380,50z"/>
</g>
<g>
	<rect x="301.5" y="0.5" class="st3" width="38" height="24"/>
	<path d="M339,1v23h-37V1H339 M340,0h-39v25h39V0L340,0z"/>
</g>
<g>
	<rect x="301.5" y="25.5" class="st3" width="38" height="24"/>
	<path d="M339,26v23h-37V26H339 M340,25h-39v25h39V25L340,25z"/>
</g>
<g>
	<rect x="340.5" y="0.5" class="st3" width="39" height="24"/>
	<path d="M379,1v23h-38V1H379 M380,0h-40v25h40V0L380,0z"/>
</g>
<g>
	<rect x="340.5" y="25.5" class="st3" width="39" height="24"/>
	<path d="M379,26v23h-38V26H379 M380,25h-40v25h40V25L380,25z"/>
</g>
<g>
	<rect x="301.5" y="75.5" class="st4" width="38" height="24"/>
	<path d="M339,76v23h-37V76H339 M340,75h-39v25h39V75L340,75z"/>
</g>
<g>
	<rect x="301.5" y="50.5" class="st4" width="38" height="24"/>
	<path d="M339,51v23h-37V51H339 M340,50h-39v25h39V50L340,50z"/>
</g>
<g>
	<rect x="340.5" y="50.5" class="st4" width="39" height="24"/>
	<path d="M379,51v23h-38V51H379 M380,50h-40v25h40V50L380,50z"/>
</g>
<g>
	<rect x="340.5" y="75.5" class="st4" width="39" height="24"/>
	<path d="M379,76v23h-38V76H379 M380,75h-40v25h40V75L380,75z"/>
</g>
<g>
	<rect x="380.5" y="50.5" class="st0" width="42" height="24"/>
	<path d="M422,51v23h-41V51H422 M423,50h-43v25h43V50L423,50z"/>
</g>
<g>
	<rect x="380.5" y="75.5" class="st0" width="42" height="24"/>
	<path d="M422,76v23h-41V76H422 M423,75h-43v25h43V75L423,75z"/>
</g>
<g>
	<rect x="423.5" y="75.5" class="st0" width="35" height="24"/>
	<path d="M458,76v23h-34V76H458 M459,75h-36v25h36V75L459,75z"/>
</g>
<g>
	<rect x="423.5" y="50.5" class="st0" width="35" height="24"/>
	<path d="M458,51v23h-34V51H458 M459,50h-36v25h36V50L459,50z"/>
</g>
<g>
	<rect x="380.5" y="0.5" class="st5" width="42" height="24"/>
	<path d="M422,1v23h-41V1H422 M423,0h-43v25h43V0L423,0z"/>
</g>
<g>
	<rect x="380.5" y="25.5" class="st5" width="42" height="24"/>
	<path d="M422,26v23h-41V26H422 M423,25h-43v25h43V25L423,25z"/>
</g>
<g>
	<rect x="423.5" y="25.5" class="st5" width="35" height="24"/>
	<path d="M458,26v23h-34V26H458 M459,25h-36v25h36V25L459,25z"/>
</g>
<g>
	<rect x="459.5" y="0.5" class="st0" width="74" height="24"/>
	<path d="M533,1v23h-73V1H533 M534,0h-75v25h75V0L534,0z"/>
</g>
<g>
	<rect x="459.5" y="25.5" class="st1" width="74" height="24"/>
	<path d="M533,26v23h-73V26H533 M534,25h-75v25h75V25L534,25z"/>
</g>
<g>
	<rect x="534.5" y="25.5" class="st0" width="66" height="24"/>
	<path d="M600,26v23h-65V26H600 M601,25h-67v25h67V25L601,25z"/>
</g>
<g>
	<rect x="534.5" y="0.5" class="st0" width="66" height="24"/>
	<path d="M600,1v23h-65V1H600 M601,0h-67v25h67V0L601,0z"/>
</g>
<g>
	<rect x="459.5" y="0.5" class="st1" width="36" height="24"/>
	<path d="M495,1v23h-35V1H495 M496,0h-37v25h37V0L496,0z"/>
</g>
<g>
	<rect x="496.5" y="0.5" class="st1" width="37" height="24"/>
	<path d="M533,1v23h-36V1H533 M534,0h-38v25h38V0L534,0z"/>
</g>
<g>
	<rect x="496.5" y="25.5" class="st1" width="37" height="24"/>
	<path d="M533,26v23h-36V26H533 M534,25h-38v25h38V25L534,25z"/>
</g>
<g>
	<rect x="459.5" y="75.5" class="st2" width="74" height="24"/>
	<path d="M533,76v23h-73V76H533 M534,75h-75v25h75V75L534,75z"/>
</g>
<g>
	<rect x="459.5" y="50.5" class="st2" width="74" height="24"/>
	<path d="M533,51v23h-73V51H533 M534,50h-75v25h75V50L534,50z"/>
</g>
<g>
	<rect x="459.5" y="75.5" class="st2" width="36" height="24"/>
	<path d="M495,76v23h-35V76H495 M496,75h-37v25h37V75L496,75z"/>
</g>
<g>
	<rect x="496.5" y="50.5" class="st2" width="37" height="24"/>
	<path d="M533,51v23h-36V51H533 M534,50h-38v25h38V50L534,50z"/>
</g>
<g>
	<rect x="567.5" y="75.5" class="st3" width="33" height="24"/>
	<path d="M600,76v23h-32V76H600 M601,75h-34v25h34V75L601,75z"/>
</g>
<g>
	<rect x="534.5" y="75.5" class="st3" width="32" height="24"/>
	<path d="M566,76v23h-31V76H566 M567,75h-33v25h33V75L567,75z"/>
</g>
<g>
	<rect x="534.5" y="50.5" class="st3" width="32" height="24"/>
	<path d="M566,51v23h-31V51H566 M567,50h-33v25h33V50L567,50z"/>
</g>
<g>
	<rect x="567.5" y="50.5" class="st3" width="33" height="24"/>
	<path d="M600,51v23h-32V51H600 M601,50h-34v25h34V50L601,50z"/>
</g>
<g>
	<rect x="534.5" y="0.5" class="st4" width="32" height="24"/>
	<path d="M566,1v23h-31V1H566 M567,0h-33v25h33V0L567,0z"/>
</g>
<g>
	<rect x="567.5" y="0.5" class="st4" width="33" height="24"/>
	<path d="M600,1v23h-32V1H600 M601,0h-34v25h34V0L601,0z"/>
</g>
<g>
	<rect x="567.5" y="25.5" class="st4" width="33" height="24"/>
	<path d="M600,26v23h-32V26H600 M601,25h-34v25h34V25L601,25z"/>
</g>
<g>
	<rect x="534.5" y="25.5" class="st4" width="32" height="23"/>
	<path d="M566,26v22h-31V26H566 M567,25h-33v24h33V25L567,25z"/>
</g>
<g>
	<rect x="602.5" y="-0.5" class="st0" width="299" height="49"/>
	<path d="M901,0v48H603V0H901 M902-1H602v50h300V-1L902-1z"/>
</g>
<g>
	<rect x="602.5" y="-0.5" class="st0" width="299" height="49"/>
	<path d="M901,0v48H603V0H901 M902-1H602v50h300V-1L902-1z"/>
</g>
<g>
	<rect x="602.5" y="49.5" class="st0" width="299" height="49"/>
	<path d="M901,50v48H603V50H901 M902,49H602v50h300V49L902,49z"/>
</g>
<g>
	<rect x="602.5" y="-0.5" class="st0" width="299" height="49"/>
	<path d="M901,0v48H603V0H901 M902-1H602v50h300V-1L902-1z"/>
</g>
<g>
	<rect x="602.5" y="49.5" class="st0" width="299" height="49"/>
	<path d="M901,50v48H603V50H901 M902,49H602v50h300V49L902,49z"/>
</g>
<g>
	<rect x="602.5" y="-0.5" class="st2" width="157" height="49"/>
	<path d="M759,0v48H603V0H759 M760-1H602v50h158V-1L760-1z"/>
</g>
<g>
	<rect x="602.5" y="49.5" class="st0" width="157" height="49"/>
	<path d="M759,50v48H603V50H759 M760,49H602v50h158V49L760,49z"/>
</g>
<g>
	<rect x="602.5" y="-0.5" class="st0" width="78" height="49"/>
	<path d="M680,0v48h-77V0H680 M681-1h-79v50h79V-1L681-1z"/>
</g>
<g>
	<rect x="602.5" y="49.5" class="st0" width="78" height="49"/>
	<path d="M680,50v48h-77V50H680 M681,49h-79v50h79V49L681,49z"/>
</g>
<g>
	<rect x="602.5" y="-0.5" class="st0" width="38" height="24"/>
	<path d="M640,0v23h-37V0H640 M641-1h-39v25h39V-1L641-1z"/>
</g>
<g>
	<rect x="602.5" y="24.5" class="st0" width="38" height="24"/>
	<path d="M640,25v23h-37V25H640 M641,24h-39v25h39V24L641,24z"/>
</g>
<g>
	<rect x="641.5" y="-0.5" class="st0" width="39" height="24"/>
	<path d="M680,0v23h-38V0H680 M681-1h-40v25h40V-1L681-1z"/>
</g>
<g>
	<rect x="641.5" y="24.5" class="st0" width="39" height="24"/>
	<path d="M680,25v23h-38V25H680 M681,24h-40v25h40V24L681,24z"/>
</g>
<g>
	<rect x="602.5" y="74.5" class="st5" width="38" height="24"/>
	<path d="M640,75v23h-37V75H640 M641,74h-39v25h39V74L641,74z"/>
</g>
<g>
	<rect x="602.5" y="49.5" class="st5" width="38" height="24"/>
	<path d="M640,50v23h-37V50H640 M641,49h-39v25h39V49L641,49z"/>
</g>
<g>
	<rect x="641.5" y="49.5" class="st5" width="39" height="24"/>
	<path d="M680,50v23h-38V50H680 M681,49h-40v25h40V49L681,49z"/>
</g>
<g>
	<rect x="641.5" y="74.5" class="st5" width="39" height="24"/>
	<path d="M680,75v23h-38V75H680 M681,74h-40v25h40V74L681,74z"/>
</g>
<g>
	<rect x="681.5" y="49.5" class="st1" width="42" height="24"/>
	<path d="M723,50v23h-41V50H723 M724,49h-43v25h43V49L724,49z"/>
</g>
<g>
	<rect x="681.5" y="74.5" class="st1" width="42" height="24"/>
	<path d="M723,75v23h-41V75H723 M724,74h-43v25h43V74L724,74z"/>
</g>
<g>
	<rect x="724.5" y="74.5" class="st1" width="35" height="24"/>
	<path d="M759,75v23h-34V75H759 M760,74h-36v25h36V74L760,74z"/>
</g>
<g>
	<rect x="724.5" y="49.5" class="st1" width="35" height="24"/>
	<path d="M759,50v23h-34V50H759 M760,49h-36v25h36V49L760,49z"/>
</g>
<g>
	<rect x="681.5" y="-0.5" class="st2" width="42" height="24"/>
	<path d="M723,0v23h-41V0H723 M724-1h-43v25h43V-1L724-1z"/>
</g>
<g>
	<rect x="681.5" y="24.5" class="st2" width="42" height="24"/>
	<path d="M723,25v23h-41V25H723 M724,24h-43v25h43V24L724,24z"/>
</g>
<g>
	<rect x="724.5" y="24.5" class="st2" width="35" height="24"/>
	<path d="M759,25v23h-34V25H759 M760,24h-36v25h36V24L760,24z"/>
</g>
<g>
	<rect x="760.5" y="-0.5" class="st0" width="74" height="24"/>
	<path d="M834,0v23h-73V0H834 M835-1h-75v25h75V-1L835-1z"/>
</g>
<g>
	<rect x="760.5" y="24.5" class="st3" width="74" height="24"/>
	<path d="M834,25v23h-73V25H834 M835,24h-75v25h75V24L835,24z"/>
</g>
<g>
	<rect x="835.5" y="24.5" class="st0" width="66" height="24"/>
	<path d="M901,25v23h-65V25H901 M902,24h-67v25h67V24L902,24z"/>
</g>
<g>
	<rect x="835.5" y="-0.5" class="st0" width="66" height="24"/>
	<path d="M901,0v23h-65V0H901 M902-1h-67v25h67V-1L902-1z"/>
</g>
<g>
	<rect x="760.5" y="-0.5" class="st3" width="36" height="24"/>
	<path d="M796,0v23h-35V0H796 M797-1h-37v25h37V-1L797-1z"/>
</g>
<g>
	<rect x="797.5" y="-0.5" class="st3" width="37" height="24"/>
	<path d="M834,0v23h-36V0H834 M835-1h-38v25h38V-1L835-1z"/>
</g>
<g>
	<rect x="797.5" y="24.5" class="st3" width="37" height="24"/>
	<path d="M834,25v23h-36V25H834 M835,24h-38v25h38V24L835,24z"/>
</g>
<g>
	<rect x="760.5" y="74.5" class="st4" width="74" height="24"/>
	<path d="M834,75v23h-73V75H834 M835,74h-75v25h75V74L835,74z"/>
</g>
<g>
	<rect x="760.5" y="49.5" class="st4" width="74" height="24"/>
	<path d="M834,50v23h-73V50H834 M835,49h-75v25h75V49L835,49z"/>
</g>
<g>
	<rect x="760.5" y="74.5" class="st4" width="36" height="24"/>
	<path d="M796,75v23h-35V75H796 M797,74h-37v25h37V74L797,74z"/>
</g>
<g>
	<rect x="797.5" y="49.5" class="st4" width="37" height="24"/>
	<path d="M834,50v23h-36V50H834 M835,49h-38v25h38V49L835,49z"/>
</g>
<g>
	<rect x="868.5" y="74.5" class="st0" width="33" height="24"/>
	<path d="M901,75v23h-32V75H901 M902,74h-34v25h34V74L902,74z"/>
</g>
<g>
	<rect x="835.5" y="74.5" class="st0" width="32" height="24"/>
	<path d="M867,75v23h-31V75H867 M868,74h-33v25h33V74L868,74z"/>
</g>
<g>
	<rect x="835.5" y="49.5" class="st0" width="32" height="24"/>
	<path d="M867,50v23h-31V50H867 M868,49h-33v25h33V49L868,49z"/>
</g>
<g>
	<rect x="868.5" y="49.5" class="st0" width="33" height="24"/>
	<path d="M901,50v23h-32V50H901 M902,49h-34v25h34V49L902,49z"/>
</g>
<g>
	<rect x="835.5" y="-0.5" class="st5" width="32" height="24"/>
	<path d="M867,0v23h-31V0H867 M868-1h-33v25h33V-1L868-1z"/>
</g>
<g>
	<rect x="868.5" y="-0.5" class="st5" width="33" height="24"/>
	<path d="M901,0v23h-32V0H901 M902-1h-34v25h34V-1L902-1z"/>
</g>
<g>
	<rect x="868.5" y="24.5" class="st5" width="33" height="24"/>
	<path d="M901,25v23h-32V25H901 M902,24h-34v25h34V24L902,24z"/>
</g>
<g>
	<rect x="835.5" y="24.5" class="st5" width="32" height="23"/>
	<path d="M867,25v22h-31V25H867 M868,24h-33v24h33V24L868,24z"/>
</g>
<g>
	<rect x="902.5" y="0.5" class="st0" width="299" height="49"/>
	<path d="M1201,1v48H903V1H1201 M1202,0H902v50h300V0L1202,0z"/>
</g>
<g>
	<rect x="902.5" y="0.5" class="st0" width="299" height="49"/>
	<path d="M1201,1v48H903V1H1201 M1202,0H902v50h300V0L1202,0z"/>
</g>
<g>
	<rect x="902.5" y="50.5" class="st0" width="299" height="49"/>
	<path d="M1201,51v48H903V51H1201 M1202,50H902v50h300V50L1202,50z"/>
</g>
<g>
	<rect x="902.5" y="0.5" class="st0" width="299" height="49"/>
	<path d="M1201,1v48H903V1H1201 M1202,0H902v50h300V0L1202,0z"/>
</g>
<g>
	<rect x="902.5" y="50.5" class="st0" width="299" height="49"/>
	<path d="M1201,51v48H903V51H1201 M1202,50H902v50h300V50L1202,50z"/>
</g>
<g>
	<rect x="902.5" y="0.5" class="st4" width="157" height="49"/>
	<path d="M1059,1v48H903V1H1059 M1060,0H902v50h158V0L1060,0z"/>
</g>
<g>
	<rect x="902.5" y="50.5" class="st0" width="157" height="49"/>
	<path d="M1059,51v48H903V51H1059 M1060,50H902v50h158V50L1060,50z"/>
</g>
<g>
	<rect x="902.5" y="0.5" class="st0" width="78" height="49"/>
	<path d="M980,1v48h-77V1H980 M981,0h-79v50h79V0L981,0z"/>
</g>
<g>
	<rect x="902.5" y="50.5" class="st0" width="78" height="49"/>
	<path d="M980,51v48h-77V51H980 M981,50h-79v50h79V50L981,50z"/>
</g>
<g>
	<rect x="902.5" y="0.5" class="st1" width="38" height="24"/>
	<path d="M940,1v23h-37V1H940 M941,0h-39v25h39V0L941,0z"/>
</g>
<g>
	<rect x="902.5" y="25.5" class="st1" width="38" height="24"/>
	<path d="M940,26v23h-37V26H940 M941,25h-39v25h39V25L941,25z"/>
</g>
<g>
	<rect x="941.5" y="0.5" class="st1" width="39" height="24"/>
	<path d="M980,1v23h-38V1H980 M981,0h-40v25h40V0L981,0z"/>
</g>
<g>
	<rect x="941.5" y="25.5" class="st1" width="39" height="24"/>
	<path d="M980,26v23h-38V26H980 M981,25h-40v25h40V25L981,25z"/>
</g>
<g>
	<rect x="902.5" y="75.5" class="st2" width="38" height="24"/>
	<path d="M940,76v23h-37V76H940 M941,75h-39v25h39V75L941,75z"/>
</g>
<g>
	<rect x="902.5" y="50.5" class="st2" width="38" height="24"/>
	<path d="M940,51v23h-37V51H940 M941,50h-39v25h39V50L941,50z"/>
</g>
<g>
	<rect x="941.5" y="50.5" class="st2" width="39" height="24"/>
	<path d="M980,51v23h-38V51H980 M981,50h-40v25h40V50L981,50z"/>
</g>
<g>
	<rect x="941.5" y="75.5" class="st2" width="39" height="24"/>
	<path d="M980,76v23h-38V76H980 M981,75h-40v25h40V75L981,75z"/>
</g>
<g>
	<rect x="981.5" y="50.5" class="st3" width="42" height="24"/>
	<path d="M1023,51v23h-41V51H1023 M1024,50h-43v25h43V50L1024,50z"/>
</g>
<g>
	<rect x="981.5" y="75.5" class="st3" width="42" height="24"/>
	<path d="M1023,76v23h-41V76H1023 M1024,75h-43v25h43V75L1024,75z"/>
</g>
<g>
	<rect x="1024.5" y="75.5" class="st3" width="35" height="24"/>
	<path d="M1059,76v23h-34V76H1059 M1060,75h-36v25h36V75L1060,75z"/>
</g>
<g>
	<rect x="1024.5" y="50.5" class="st3" width="35" height="24"/>
	<path d="M1059,51v23h-34V51H1059 M1060,50h-36v25h36V50L1060,50z"/>
</g>
<g>
	<rect x="981.5" y="0.5" class="st4" width="42" height="24"/>
	<path d="M1023,1v23h-41V1H1023 M1024,0h-43v25h43V0L1024,0z"/>
</g>
<g>
	<rect x="981.5" y="25.5" class="st4" width="42" height="24"/>
	<path d="M1023,26v23h-41V26H1023 M1024,25h-43v25h43V25L1024,25z"/>
</g>
<g>
	<rect x="1024.5" y="25.5" class="st4" width="35" height="24"/>
	<path d="M1059,26v23h-34V26H1059 M1060,25h-36v25h36V25L1060,25z"/>
</g>
<g>
	<rect x="1060.5" y="0.5" class="st0" width="74" height="24"/>
	<path d="M1134,1v23h-73V1H1134 M1135,0h-75v25h75V0L1135,0z"/>
</g>
<g>
	<rect x="1060.5" y="25.5" class="st0" width="74" height="24"/>
	<path d="M1134,26v23h-73V26H1134 M1135,25h-75v25h75V25L1135,25z"/>
</g>
<g>
	<rect x="1135.5" y="25.5" class="st0" width="66" height="24"/>
	<path d="M1201,26v23h-65V26H1201 M1202,25h-67v25h67V25L1202,25z"/>
</g>
<g>
	<rect x="1135.5" y="0.5" class="st0" width="66" height="24"/>
	<path d="M1201,1v23h-65V1H1201 M1202,0h-67v25h67V0L1202,0z"/>
</g>
<g>
	<rect x="1060.5" y="0.5" class="st0" width="36" height="24"/>
	<path d="M1096,1v23h-35V1H1096 M1097,0h-37v25h37V0L1097,0z"/>
</g>
<g>
	<rect x="1097.5" y="0.5" class="st0" width="37" height="24"/>
	<path d="M1134,1v23h-36V1H1134 M1135,0h-38v25h38V0L1135,0z"/>
</g>
<g>
	<rect x="1097.5" y="25.5" class="st0" width="37" height="24"/>
	<path d="M1134,26v23h-36V26H1134 M1135,25h-38v25h38V25L1135,25z"/>
</g>
<g>
	<rect x="1060.5" y="75.5" class="st5" width="74" height="24"/>
	<path d="M1134,76v23h-73V76H1134 M1135,75h-75v25h75V75L1135,75z"/>
</g>
<g>
	<rect x="1060.5" y="50.5" class="st5" width="74" height="24"/>
	<path d="M1134,51v23h-73V51H1134 M1135,50h-75v25h75V50L1135,50z"/>
</g>
<g>
	<rect x="1060.5" y="75.5" class="st5" width="36" height="24"/>
	<path d="M1096,76v23h-35V76H1096 M1097,75h-37v25h37V75L1097,75z"/>
</g>
<g>
	<rect x="1097.5" y="50.5" class="st5" width="37" height="24"/>
	<path d="M1134,51v23h-36V51H1134 M1135,50h-38v25h38V50L1135,50z"/>
</g>
<g>
	<rect x="1168.5" y="75.5" class="st1" width="33" height="24"/>
	<path d="M1201,76v23h-32V76H1201 M1202,75h-34v25h34V75L1202,75z"/>
</g>
<g>
	<rect x="1135.5" y="75.5" class="st1" width="32" height="24"/>
	<path d="M1167,76v23h-31V76H1167 M1168,75h-33v25h33V75L1168,75z"/>
</g>
<g>
	<rect x="1135.5" y="50.5" class="st1" width="32" height="24"/>
	<path d="M1167,51v23h-31V51H1167 M1168,50h-33v25h33V50L1168,50z"/>
</g>
<g>
	<rect x="1168.5" y="50.5" class="st1" width="33" height="24"/>
	<path d="M1201,51v23h-32V51H1201 M1202,50h-34v25h34V50L1202,50z"/>
</g>
<g>
	<rect x="1135.5" y="0.5" class="st2" width="32" height="24"/>
	<path d="M1167,1v23h-31V1H1167 M1168,0h-33v25h33V0L1168,0z"/>
</g>
<g>
	<rect x="1168.5" y="0.5" class="st2" width="33" height="24"/>
	<path d="M1201,1v23h-32V1H1201 M1202,0h-34v25h34V0L1202,0z"/>
</g>
<g>
	<rect x="1168.5" y="25.5" class="st2" width="33" height="24"/>
	<path d="M1201,26v23h-32V26H1201 M1202,25h-34v25h34V25L1202,25z"/>
</g>
<g>
	<rect x="1135.5" y="25.5" class="st2" width="32" height="23"/>
	<path d="M1167,26v22h-31V26H1167 M1168,25h-33v24h33V25L1168,25z"/>
</g>
<path class="st5" d="M184.6,57.1c-6.4,0-6.4,10,0,10S191.1,57.1,184.6,57.1z"/>
<rect class="st6" width="1202" height="49"/>
</svg>
