<?xml version="1.0" encoding="utf-8"?>
<!-- Generator: Adobe Illustrator 21.1.0, SVG Export Plug-In . SVG Version: 6.00 Build 0)  -->
<svg version="1.1" id="Layer_1" xmlns="http://www.w3.org/2000/svg" xmlns:xlink="http://www.w3.org/1999/xlink" x="0px" y="0px"
	 viewBox="0 0 480.9 108" style="enable-background:new 0 0 480.9 108;" xml:space="preserve">
<style type="text/css">
	.st0{fill:#FFE121;}
	.st1{fill:#000000;}
</style>
<title>SB_Corp_Logo_H_clr_r_RGB</title>
<circle class="st0" cx="54" cy="54" r="54"/>
<path d="M51.57,25.7v36.37c-10.043-0.236-17.994-8.568-17.758-18.612C34.039,33.747,41.858,25.928,51.57,25.7z"/>
<path d="M56.42,82.3V45.93c10.043,0.236,17.994,8.568,17.758,18.612C73.951,74.253,66.132,82.072,56.42,82.3z"/>
<circle cx="65" cy="34.27" r="8.57"/>
<circle cx="43" cy="73.73" r="8.57"/>
<path class="st1" d="M147.36,66.17c0-3,1.81-5,4.47-5c2.449-0.125,4.535,1.76,4.66,4.209v0.001c0.023,0.898-0.176,1.788-0.58,2.59
	c2.012,1.263,4.356,1.894,6.73,1.81c4.66,0,7.63-2.07,7.63-5.76c0-3.49-3.56-5.18-7.83-6.67c-7.89-2.85-13.46-5.37-13.46-13.26
	c0-6.79,5.5-12.1,14.11-12.1c8,0,14.11,4.08,14.11,9.19c0,3-1.88,4.79-4.34,4.79c-2.432,0.138-4.515-1.721-4.653-4.152
	c-0.003-0.059-0.006-0.118-0.007-0.178c-0.035-0.695,0.121-1.387,0.45-2c-1.723-0.937-3.671-1.383-5.63-1.29
	c-4.21,0-6.66,2.14-6.66,5.24c0,3.49,3.56,5,7.83,6.6c7.64,2.72,13.39,5.37,13.39,13.27c0,8.09-6.28,12.68-15,12.68
	C154.15,76.06,147.36,71.34,147.36,66.17z"/>
<path class="st1" d="M186.9,71.92c-0.706-1.378-1.05-2.913-1-4.46V52.9h-5.48v-6h5.5v-6l7-3v9h8.61v6h-8.61v13.2
	c-0.042,0.718,0.113,1.434,0.45,2.07c0.668,0.978,1.824,1.503,3,1.36c1.939-0.112,3.834-0.62,5.57-1.49l-0.58,6.08
	c-2.1,1.085-4.426,1.661-6.79,1.68C191.11,75.81,188.32,74.64,186.9,71.92z"/>
<path class="st1" d="M205.21,61.12c0-7.77,5.82-14.69,15.08-14.69c9.26,0,15.08,6.79,15.08,14.69s-5.82,14.69-15.08,14.69
	S205.21,69,205.21,61.12z M228.12,61.12c0-5.18-3.24-8.8-7.83-8.8s-7.83,3.62-7.83,8.8s3.24,8.8,7.83,8.8
	C224.88,69.92,228.12,66.29,228.12,61.12z"/>
<path class="st1" d="M264.1,51.09c0.045,2.375-1.836,4.34-4.21,4.4c-1.759,0.059-3.385-0.931-4.14-2.52
	c-2.431,1.101-4.416,2.994-5.63,5.37v11.13h4.92v5.82h-16.18v-5.82h4.21V52.9h-4.21v-6h11v6.41c2.39-3.82,5.37-6.92,9-6.92
	S264.1,48.56,264.1,51.09z"/>
<path class="st1" d="M273.99,88.17c-3.75,0-6.08-2.2-6.08-4.47c-0.145-1.85,1.237-3.467,3.087-3.613
	c0.134-0.011,0.269-0.013,0.403-0.007c1.388-0.027,2.639,0.834,3.11,2.14c0.924-0.283,1.722-0.877,2.26-1.68
	c0.5-0.69,0.932-1.427,1.29-2.2l2.14-4.47l-10.1-21h-3.49v-6h14.62v5.63h-4.14l6.53,14.95l6.6-14.95h-4.4v-5.63h14.6v6h-3.43
	L283.69,81c-0.588,1.23-1.327,2.383-2.2,3.43C279.674,86.734,276.923,88.106,273.99,88.17z"/>
<path class="st1" d="M311.14,72.57l-1.55,2.85h-4.79V33.88h-4.27v-6h11.32v22.13c2.178-2.288,5.191-3.594,8.35-3.62
	c7.51,0,13.14,6,13.14,14.56c0,8.22-6,14.82-13.59,14.82C316.585,75.793,313.522,74.655,311.14,72.57z M326.09,61.05
	c0-5.44-3.37-8.54-7.51-8.54c-2.521,0.076-4.922,1.092-6.73,2.85v12.17c1.96,1.416,4.312,2.185,6.73,2.2
	c3.95-0.01,7.5-3.05,7.5-8.68L326.09,61.05z"/>
<path class="st1" d="M336.3,69.47h4.4V33.88h-4.4v-6h11.45v41.54h4.21v5.82H336.3V69.47z"/>
<path class="st1" d="M354.9,61.12c0-7.77,5.82-14.69,15.08-14.69s15.08,6.79,15.08,14.69s-5.82,14.69-15.08,14.69
	S354.9,69,354.9,61.12z M377.81,61.12c0-5.18-3.24-8.8-7.83-8.8s-7.83,3.62-7.83,8.8s3.24,8.8,7.83,8.8s7.82-3.63,7.82-8.8H377.81z"
	/>
<path class="st1" d="M389.14,60.86c0.016-7.935,6.425-14.375,14.36-14.43c7.77,0,12.88,5,12.88,9.51
	c0.183,2.456-1.661,4.596-4.117,4.778c-0.137,0.01-0.275,0.014-0.413,0.012c-2.349-0.022-4.248-1.921-4.27-4.27
	c0.027-0.876,0.347-1.718,0.91-2.39c-1.308-1.34-3.131-2.047-5-1.94c-3.24,0-7.25,2.65-7.25,8.87c0,5.44,4.14,8.86,9.19,8.86
	c3.43,0,6.41-1,10.09-3l-0.58,6.34c-3.051,1.799-6.55,2.697-10.09,2.59C395.87,75.81,389.14,70,389.14,60.86z"/>
<path class="st1" d="M420,69.47h4.21V33.88H420v-6h11.26v31.77l8.28-7.12h-3.95V46.9h16.76v6h-5.24l-6.6,5.56l7.18,10.87h4.66v6
	h-8.86l-8.15-12.75L431.26,66v3.62h3.56v5.69H420V69.47z"/>
<path class="st1" d="M476.57,57c-2.26,0-3.82-1.36-3.82-3.49c-0.024-0.414,0.019-0.83,0.13-1.23c-1.28-0.475-2.635-0.716-4-0.71
	c-3.17,0-4.72,1.42-4.72,2.91s1.62,2.46,6,3.62c6.79,1.81,10.74,3.49,10.74,8.61c0,6-5.57,9.12-12,9.12c-4.33,0-9-1.55-10.87-3.43
	c-1.068-0.979-1.659-2.372-1.62-3.82c-0.05-2.059,1.579-3.769,3.639-3.819c0.037-0.001,0.074-0.001,0.111-0.001
	c2.014-0.095,3.723,1.461,3.817,3.474c0.004,0.092,0.005,0.184,0.003,0.276c-0.011,0.39-0.055,0.778-0.13,1.16
	c1.633,0.615,3.365,0.924,5.11,0.91c2.85,0,5.18-1,5.18-3c0-1.42-1.23-2.26-5.56-3.43c-7.83-2.07-11.13-3.95-11.13-8.8
	c0-4.4,3.62-9,11.58-9c3.43,0,7.57,1.29,9.51,3.24c0.99,0.944,1.55,2.252,1.55,3.62c0.166,1.92-1.256,3.611-3.177,3.777
	C476.799,56.997,476.685,57.001,476.57,57z"/>
</svg>
