<?xml version="1.0" encoding="utf-8"?>
<!-- Generator: Adobe Illustrator 21.1.0, SVG Export Plug-In . SVG Version: 6.00 Build 0)  -->
<svg version="1.1" id="Layer_1" xmlns="http://www.w3.org/2000/svg" xmlns:xlink="http://www.w3.org/1999/xlink" x="0px" y="0px"
	 viewBox="0 0 500 500" style="enable-background:new 0 0 500 500;" xml:space="preserve">
<style type="text/css">
	.st0{fill:#FFFFFF;}
	.st1{fill:none;stroke:#000000;stroke-width:2;stroke-miterlimit:10;}
	.st2{fill:none;}
	.st3{fill:none;stroke:#000000;stroke-miterlimit:10;}
</style>
<g>
	<path d="M111,399.5c-6.3,0-11.5-5.2-11.5-11.5V111c0-6.3,5.2-11.5,11.5-11.5h277c6.3,0,11.5,5.2,11.5,11.5v277
		c0,6.3-5.2,11.5-11.5,11.5H111z"/>
	<path d="M388,100c6.1,0,11,4.9,11,11v277c0,6.1-4.9,11-11,11H111c-6.1,0-11-4.9-11-11V111c0-6.1,4.9-11,11-11H388 M388,99H111
		c-6.6,0-12,5.4-12,12v277c0,6.6,5.4,12,12,12h277c6.6,0,12-5.4,12-12V111C400,104.4,394.6,99,388,99L388,99z"/>
</g>
<g>
	<path class="st0" d="M157,316.5c-6.3,0-11.5-5.2-11.5-11.5V195c0-6.3,5.2-11.5,11.5-11.5h185c6.3,0,11.5,5.2,11.5,11.5v110
		c0,6.3-5.2,11.5-11.5,11.5H157z"/>
	<path d="M342,184c6.1,0,11,4.9,11,11v110c0,6.1-4.9,11-11,11H157c-6.1,0-11-4.9-11-11V195c0-6.1,4.9-11,11-11H342 M342,183H157
		c-6.6,0-12,5.4-12,12v110c0,6.6,5.4,12,12,12h185c6.6,0,12-5.4,12-12V195C354,188.4,348.6,183,342,183L342,183z"/>
</g>
<g>
	<line class="st1" x1="145.5" y1="183.5" x2="249.5" y2="271.5"/>
	<line class="st2" x1="145.5" y1="183.5" x2="249.5" y2="271.5"/>
</g>
<line class="st1" x1="354.5" y1="183.5" x2="249.5" y2="271.5"/>
<line class="st3" x1="145.5" y1="317.5" x2="237.5" y2="261.5"/>
<line class="st3" x1="354.5" y1="317.5" x2="262.5" y2="261.5"/>
</svg>
