<?xml version="1.0" encoding="utf-8"?>
<!-- Generator: Adobe Illustrator 21.1.0, SVG Export Plug-In . SVG Version: 6.00 Build 0)  -->
<svg version="1.1" id="Layer_1" xmlns="http://www.w3.org/2000/svg" xmlns:xlink="http://www.w3.org/1999/xlink" x="0px" y="0px"
	 viewBox="0 0 500 500" style="enable-background:new 0 0 500 500;" xml:space="preserve">
<style type="text/css">
	.st0{fill:#FFFFFF;}
	.st1{fill:#FFFFFF;stroke:#000000;stroke-width:2;stroke-miterlimit:10;}
	.st2{stroke:#000000;stroke-width:2;stroke-miterlimit:10;}
	.st3{fill:none;stroke:#000000;stroke-width:4;stroke-miterlimit:10;}
	.st4{fill:none;stroke:#000000;stroke-miterlimit:10;}
	.st5{fill:#202020;}
</style>
<g>
	<path class="st0" d="M111,399c-6.1,0-11-4.9-11-11V111c0-6.1,4.9-11,11-11h277c6.1,0,11,4.9,11,11v277c0,6.1-4.9,11-11,11H111z"/>
	<path d="M388,101c5.5,0,10,4.5,10,10v277c0,5.5-4.5,10-10,10H111c-5.5,0-10-4.5-10-10V111c0-5.5,4.5-10,10-10H388 M388,99H111
		c-6.6,0-12,5.4-12,12v277c0,6.6,5.4,12,12,12h277c6.6,0,12-5.4,12-12V111C400,104.4,394.6,99,388,99L388,99z"/>
</g>
<path class="st1" d="M243,151"/>
<path class="st2" d="M309,205.4c0,34.4-59,135.6-59,135.6s-59-97.5-59-133.7c0-47.4,27.2-75.2,57.2-74.3
	C280.6,134,309,159.9,309,205.4z"/>
<circle class="st1" cx="250.5" cy="198.5" r="20.5"/>
<line class="st3" x1="299.5" y1="267.5" x2="351.5" y2="371.5"/>
<line class="st3" x1="199.5" y1="267.5" x2="160.5" y2="373.5"/>
<line class="st3" x1="199.5" y1="267.5" x2="299.5" y2="267.5"/>
<line class="st3" x1="160.5" y1="373.5" x2="351" y2="371"/>
<path class="st4" d="M210.4,326.3c-2,2.2-4.6,3.8-6.3,6.2s-2.2,6.2,0.1,8c1.8,1.5,4.7,1.1,6.5-0.4s2.8-3.8,3.3-6.1
	c0.4-1.6,0.6-3.4,0-5S212,326.2,210.4,326.3"/>
<path class="st4" d="M187.4,330.4c0.4-5.8,3.6-11.4,8.6-14.6c3.7-2.3,8.1-3.3,12.4-3.9c3.1-0.4,6.4-0.7,9.4,0.1
	c8.7,2.4,12.9,12.5,13.6,21.6c0.3,3.8,0.1,8-2.1,11.1c-1.1,1.6-2.8,2.8-3.3,4.7c-0.4,1.3-0.1,2.7,0,4c0.2,4.8-4,10.1-8.6,8.7
	c-1.1-0.3-2.1-1-3.1-1.5c-3.2-1.6-6.9-1.5-10.4-2.3c-7.5-1.9-13.4-8.8-14.2-16.5c-0.4-3.6,0.3-7.6-1.6-10.8"/>
<path class="st4" d="M207.9,321.8c-3.3-0.5-6.7,1.2-8.9,3.8s-3.2,5.9-3.8,9.3c-0.9,5.7,0.1,12.5,5.2,15.3c3.7,2,8.5,1.1,11.9-1.5
	c3.4-2.5,5.5-6.4,7.1-10.3c1.1-2.8,2-5.9,1.1-8.8c-1.6-5-7.5-6.8-12.6-8"/>
<path class="st4" d="M207.9,301.6c9.7,0,19.3,3.8,26.3,10.5"/>
<path class="st4" d="M261.5,319.5c1,0.9,2,1.8,3,2.8c11.6,11.1,19.7,25.9,22.7,41.7c0.2,0.8,0.3,1.8-0.2,2.5
	c-0.4,0.5-1.1,0.8-1.8,0.9c-4.9,1.2-10,1.9-15.1,1.9"/>
<path class="st4" d="M188.9,371.5c-0.5,3.1-5.9,3.7-7,0.7c-0.4-1-0.3-2.1-0.4-3.2c-0.5-3.4-3.2-5.9-5.4-8.5s-4.1-6.2-2.7-9.3
	c0,2.4-4.2,3.1-5,0.9"/>
<path class="st4" d="M208.7,302.2c-6.4-0.3-12.9-0.7-19.3-1"/>
<path class="st4" d="M196.6,285c9.9-1.5,17.7,11.6,27.7,10"/>
<path class="st4" d="M281.7,292.1c17.7,8.4,29.3,25.9,45.7,36.6"/>
<g>
	<g>
		<g>
			<g>
				<g>
					<path class="st5" d="M281.9,291.6c0-0.1,0.1-0.3,0.1-0.2L281.9,291.6L281.9,291.6z"/>
					<path class="st5" d="M282,291c-0.1,0.1-0.2,0.4-0.3,0.7c0.1-0.3,0.1-0.2,0.2-0.5c0,0,0,0.1-0.1,0.2c0-0.1,0,0.1,0.1-0.1
						s0.1-0.3,0-0.1C281.9,291.1,282,291,282,291z"/>
					<path class="st5" d="M281,290.1L281,290.1L281,290.1z"/>
					<path class="st5" d="M280.4,289.7L280.4,289.7C280.4,289.6,280.4,289.7,280.4,289.7z"/>
					<path class="st5" d="M280.4,289.3L280.4,289.3L280.4,289.3z"/>
					<path class="st5" d="M281,290.1V290C281,290.1,281,290.1,281,290.1z"/>
					<path class="st5" d="M281.6,291.7C281.6,291.7,281.6,291.6,281.6,291.7C281.6,291.6,281.6,291.6,281.6,291.7L281.6,291.7z"/>
					<path class="st5" d="M281.4,290L281.4,290c0,0,0-0.1,0.1-0.1L281.4,290z"/>
					<path class="st5" d="M281.7,290c0,0-0.1,0.3-0.1,0.4c0-0.1,0.1-0.2,0.1-0.2C281.6,290.1,281.6,290.1,281.7,290z"/>
					<path class="st5" d="M281.9,290.6L281.9,290.6L281.9,290.6z"/>
					<path class="st5" d="M281.3,289.8L281.3,289.8L281.3,289.8z"/>
					<path class="st5" d="M274,289.6C274,289.5,274,289.5,274,289.6C274,289.5,274,289.6,274,289.6z"/>
					<path class="st5" d="M274.1,288.1L274.1,288.1c0-0.1,0-0.1,0.1-0.2L274.1,288.1z"/>
					<path class="st5" d="M280.3,288.9L280.3,288.9L280.3,288.9z"/>
					<path class="st5" d="M278.2,288.4c-0.1,0.2-0.1,0.3-0.2,0.6C278,288.9,278.2,288.6,278.2,288.4z"/>
					<path class="st5" d="M281.6,291.6C281.6,291.7,281.6,291.7,281.6,291.6C281.6,291.7,281.6,291.7,281.6,291.6z"/>
					<path class="st5" d="M278,289L278,289L278,289L278,289z"/>
					<path class="st5" d="M279.7,288.9v0.1V288.9z"/>
					<path class="st5" d="M280,289.4L280,289.4L280,289.4z"/>
					<path class="st5" d="M279.4,289.2C279.4,289.2,279.4,289.1,279.4,289.2L279.4,289.2C279.4,289.2,279.4,289.1,279.4,289.2z"/>
					<path class="st5" d="M279.2,289.1C279.2,289.1,279.2,289.2,279.2,289.1C279.2,289.2,279.2,289.2,279.2,289.1L279.2,289.1z"/>
					<path class="st5" d="M274.6,289.6c0-0.1,0-0.2,0.1-0.2C274.6,289.6,274.6,289.6,274.6,289.6z"/>
					<path class="st5" d="M281.6,291.5c0,0.1,0,0.1,0,0.1l0,0C281.6,291.6,281.6,291.6,281.6,291.5z"/>
					<path class="st5" d="M278.7,291.3L278.7,291.3C278.6,291.3,278.7,291.3,278.7,291.3z"/>
					<path class="st5" d="M276.1,290.1L276.1,290.1L276.1,290.1z"/>
					<path class="st5" d="M278.5,291.2c0-0.1,0-0.2,0-0.2s0,0,0,0.1V291.2z"/>
					<path class="st5" d="M274.7,289.4L274.7,289.4L274.7,289.4z"/>
					<path class="st5" d="M274.3,290c0,0,0.1-0.3,0.2-0.5S274.4,289.7,274.3,290c0.1-0.2,0.3-0.5,0.3-0.5c0,0.1,0,0.1-0.1,0.2
						c0.1-0.3,0.1,0,0.2-0.3v0.1c0.1-0.2,0.1-0.4,0.2-0.5c0,0,0.1-0.2,0,0c0,0,0,0.1-0.1,0.2v-0.1c-0.1,0.3-0.1,0.1-0.1,0.3
						c0.1-0.1,0.2-0.4,0.2-0.3c-0.1,0.3-0.1,0.1-0.2,0.4v-0.1c-0.1,0.5,0,0-0.2,0.5c0,0.1,0.1-0.1,0.1,0c0.1-0.2,0.1-0.3,0.2-0.4
						c0.2-0.3-0.2,0.8,0,0.4c0.1-0.2,0.2-0.6,0.2-0.4l-0.1,0.4c0,0.1,0.2-0.5,0.2-0.3c-0.1,0.1-0.1,0.1-0.1,0.2
						c-0.1,0.3,0.1-0.2,0.1-0.2l-0.1,0.3c0.1,0,0.2-0.2,0.3-0.3c0,0.1-0.1,0.2-0.1,0.3c0.1-0.1,0.1,0.1,0.1,0.3l0.1-0.3
						c0,0,0,0.1-0.1,0.2c0,0.1,0.1-0.2,0.1-0.3c0,0,0,0.2-0.1,0.2c0.1-0.2,0.3-0.5,0.2-0.2v0.1c0,0.1,0.2-0.6,0.2-0.3l0,0
						c0,0.1,0.2-0.1,0.1,0.4c0.1-0.4,0,0.2,0.2-0.4c-0.1,0.3-0.1,0.4-0.1,0.6c0,0,0.1-0.3,0.2-0.4l-0.1,0.3l0.1-0.3l-0.1,0.4v-0.1
						c0,0,0-0.1,0.1-0.2s0,0.2-0.1,0.4l0.2-0.2c0,0.1-0.1,0.2-0.1,0.2c0.1-0.3-0.1,0.3,0,0c0-0.1,0.1-0.2,0.1-0.2c0,0.2,0,0.2,0,0.1
						l-0.1,0.2c0,0.1,0.1-0.1,0.2,0c0-0.1,0.1-0.4,0.2-0.5l-0.1,0.3c0.1-0.2,0-0.1,0.1-0.3c0,0-0.1,0.4-0.2,0.5l0.1-0.1
						c0,0.1-0.1,0.1-0.1,0.3c0.1-0.2-0.1,0.3,0.1,0v0.1c0.1,0,0.1-0.1,0.2-0.1c0.1-0.3,0.1-0.2,0.2-0.4c0,0.1,0,0.3,0,0.3
						c0.1-0.1,0.1-0.2,0.2-0.4c-0.1,0.2,0,0.2-0.1,0.4c0.1,0,0.1,0,0.2-0.2c0-0.1,0-0.1,0.1-0.2c0,0,0,0.1-0.1,0.2l0,0
						c0.2-0.3-0.1,0.8,0.1,0.3l0,0l0.1-0.2c0,0.1-0.1,0.2-0.1,0.3c0.2-0.4,0.1,0.1,0.2-0.2c-0.2,0.7,0.2,0,0.1,0.5l0.1-0.2
						c0.1-0.2,0,0.1,0,0.1c0-0.1,0-0.2,0.1-0.2c0.2-0.2,0.2,0.3,0.2,0.5c0,0.1,0.3-0.9,0.2-0.4l-0.1,0.3c0.2-0.3,0.2,0.1,0.4-0.2
						c0,0.1-0.1,0.2-0.1,0.2c-0.1,0.2,0.1,0,0.1-0.2c0,0-0.1,0.2-0.1,0.3c0,0.1,0.1-0.3,0.1,0v0.1c0.1-0.1,0,0,0.1-0.2
						c0,0.1,0.1-0.1,0.1,0.1c0.1-0.3,0,0.2,0.2-0.3c-0.2,0.4-0.1,0.4,0,0.2c-0.1,0.1,0,0.1-0.1,0.3c0,0,0.1-0.1,0.1-0.3
						c-0.1,0.5,0.2-0.4,0,0.3c0.1-0.2,0.3-0.3,0.4-0.4c-0.1,0.4-0.1,0-0.2,0.5c0.1-0.2,0.3-0.5,0.3-0.4s-0.1,0.2-0.1,0.3
						c0.1-0.2,0.1,0.1,0.2-0.1c0,0,0,0.1-0.1,0.1c0,0,0,0.1,0.1-0.1l0,0c0.1-0.3,0.2-0.6,0.3-0.7c-0.2,0.5,0,0.2-0.3,0.8
						c0,0,0.1-0.1,0.1-0.3c0,0,0,0.1-0.1,0.3c0.1-0.1,0.1-0.3,0.2-0.3c0,0.1-0.1,0.1-0.1,0.2c0.1-0.2,0.2-0.4,0.2-0.3s0,0.1-0.1,0.1
						c0.1,0,0.3-0.5,0.2-0.3c-0.2,0.4,0,0.1-0.1,0.5l0.1-0.1V291c0,0,0.1-0.2,0.1-0.1l-0.1,0.1l0.1-0.1v-0.1
						c0.1-0.2,0.2-0.4,0.2-0.3c0,0,0,0,0,0.2l0,0c0.1-0.1,0.1-0.2,0.1-0.1s-0.1,0.4-0.2,0.5c0.1-0.3,0.1-0.1,0.2-0.4
						c0,0.1-0.1,0.3-0.1,0.3l0.1-0.2c0,0.1,0,0.1-0.1,0.3c0,0.1,0.1-0.5,0.1-0.2v0.1c0,0.1,0.1-0.1,0.1,0c-0.1,0.4-0.1,0.1-0.2,0.4
						c0.1,0,0.3-0.4,0.3-0.3l0,0c0.2-0.5,0,0.3,0.1,0c0,0-0.1,0.3-0.1,0.2c0,0.1,0.1-0.1,0.2-0.2l-0.1,0.1c0,0.1,0,0.1,0,0.2
						c0.1-0.1,0.1-0.1,0.1-0.3c-0.2,0.8,0.3-0.3,0.1,0.3l-0.1,0.1l0.1-0.1c0.1-0.2,0-0.1,0.1-0.3c0.1-0.1,0.1-0.2,0.1-0.2
						c-0.1,0.1-0.1,0.4-0.2,0.5c0-0.1,0.1-0.1,0.1-0.2c-0.1,0.4,0.2-0.4,0.1-0.2v0.1c0-0.1,0.1-0.2,0.1-0.2
						c-0.1,0.3-0.1,0.1-0.1,0.3c0,0,0.2-0.5,0.1-0.2c0,0.1,0,0.1-0.1,0.1c-0.1,0.3-0.1,0.2-0.1,0.3l0,0v0.1v-0.1
						c0.3-0.6,0.1-0.1,0.3-0.5c-0.2,0.4-0.1,0.2-0.2,0.5c0,0.1,0,0.2-0.1,0.3c0.1-0.2,0,0.2,0.1-0.1c0,0.1,0,0-0.1,0.2
						c0-0.1,0.1-0.2,0.1-0.3c0.1-0.3,0,0.4,0.2,0c0.1-0.2,0.2-0.5,0.3-0.6c0,0.2-0.1,0.3-0.1,0.3c0,0.1,0,0.1,0.1,0
						c0,0.1-0.1,0.1-0.1,0.3c0,0,0.1-0.3,0.1-0.2c0,0.1-0.1,0.3-0.1,0.4c0-0.1,0.1-0.2,0.2-0.3c-0.1,0.2-0.1,0.2-0.1,0.3
						c0-0.1,0.1-0.1,0.2-0.4v-0.1c0,0-0.1,0.2-0.1,0.3c-0.1,0.2,0-0.1,0-0.2v-0.1c0.2-0.5-0.1,0.1-0.1,0l0.1-0.4l-0.1,0.3
						c0-0.1,0.1-0.3,0.1-0.4c0-0.2-0.1,0.1,0-0.1v-0.1l-0.1,0.1c0-0.1,0.1-0.3,0.1-0.2c0-0.2-0.2,0.3-0.1,0l0,0
						c-0.1,0.1-0.1,0.3-0.3,0.6l0.2-0.7l-0.1,0.3c0,0,0,0,0-0.2c-0.1,0.2,0,0.1-0.1,0.3c0.1-0.3-0.1,0.1,0-0.4
						c-0.1,0.2,0,0.2-0.1,0.3c0.2-0.5-0.1,0.1,0-0.2c0.1-0.3,0.1-0.1,0.1-0.3c-0.2,0.4,0-0.1-0.1,0c-0.1,0.3-0.1,0.1-0.2,0.2
						c0-0.1,0-0.2,0-0.3v-0.1c-0.1,0.3-0.1,0.3-0.2,0.3c0.1-0.2,0.1-0.3,0.1-0.4l0,0c0,0.1-0.1,0.2-0.1,0.2l0.1-0.3
						c0,0-0.2,0.3-0.1,0.1c-0.1,0.2-0.2,0.7-0.3,0.8c0-0.1,0.1-0.4,0.1-0.4s0,0.1,0,0l0.1-0.2c0-0.1-0.1,0.2-0.1,0.2
						c0.1-0.2,0-0.1,0.1-0.3c0,0,0,0.1,0,0c0,0,0-0.2,0.1-0.3c0,0.1-0.1,0.3-0.1,0.3s0.1-0.2,0.1-0.3c-0.1,0.1,0,0-0.1,0.3
						c0,0,0-0.1,0.1-0.2c-0.1,0.1-0.1,0-0.2,0.3l0,0l0,0l0,0l0,0c-0.1,0.3,0-0.2-0.1-0.1v-0.1c-0.1,0.1-0.1,0-0.2,0.2
						c0,0,0-0.2,0.1-0.3c0,0.1-0.1,0.2-0.1,0c0.1-0.2,0-0.1,0.1-0.1c0-0.1,0-0.2-0.1,0c0.1-0.2,0.1-0.3,0-0.2v0.2l0,0l0.1-0.3
						c0.1-0.4-0.3,0.6-0.2,0c-0.1,0.2,0,0.2-0.1,0.4c0-0.1,0.1-0.5,0.1-0.5c0-0.2-0.2,0.4-0.2,0.3c0,0.1-0.1,0.4-0.2,0.5
						c0-0.1,0.1-0.5,0.2-0.6c0,0,0,0,0,0.1c0,0,0.1-0.1,0.1-0.2v0.1c0-0.1,0-0.1,0.1-0.3c-0.1,0.1-0.1,0.2-0.1,0.2
						c0-0.2-0.1,0-0.1-0.1c0,0.1-0.1,0.2-0.1,0.2c0-0.2-0.1,0.2-0.1,0.2c0-0.2,0.1-0.4,0.1-0.3c0-0.1,0.1-0.3,0.1-0.4
						c-0.1,0.2,0-0.2,0-0.2v-0.1c0,0.1,0,0,0,0l-0.1,0.2c0,0,0,0,0-0.1c-0.1,0.1-0.1,0.4-0.2,0.6c0-0.1-0.1,0.1,0-0.2
						c0,0.1,0.1-0.3,0.2-0.3l0,0v-0.1c0.1-0.3-0.1,0.3-0.2,0.3c0.1-0.2,0.1-0.3,0.1-0.3s-0.1,0.3-0.1,0.4c0-0.1-0.1,0.1-0.1,0.1v0.1
						c-0.1,0.2-0.1,0.1-0.1,0.2c0-0.1,0-0.1,0.1-0.1c-0.1,0.3,0.1-0.3,0-0.1c0-0.1,0.1-0.3,0.1-0.4c-0.1,0.2,0-0.2-0.1-0.1
						c-0.1,0.2,0,0.2-0.1,0.4l0.1-0.1l-0.1,0.3l0.1-0.1c-0.1,0.2-0.1,0.1-0.1,0.3c0.1-0.3-0.1,0.2-0.1-0.1l0.2-0.6
						c0-0.3-0.2,0.3-0.2,0.1v0.1c-0.1,0.2,0,0-0.1,0.1c0.1-0.2,0.1-0.3,0.1-0.4c0,0.1,0,0-0.2,0.3l0.1-0.3c0-0.1-0.2,0.5-0.3,0.4
						c0.1-0.2,0.1-0.3,0.2-0.5c0,0,0,0-0.1,0.1c0-0.1-0.1,0.2-0.1,0.1c0,0.1-0.1,0.3-0.1,0.3v-0.1c0,0.1-0.1,0.1-0.1,0.3
						c0.2-0.6-0.1,0,0-0.5c-0.1,0.1-0.1,0.1-0.1,0.1c0-0.1,0-0.1,0-0.1c0-0.2-0.2,0.5-0.2,0.3c0.1-0.3,0.1-0.2,0.1-0.3
						c0.2-0.6-0.1,0.1,0-0.3l0,0c0.1-0.2-0.1,0.2-0.2,0.2v-0.1c-0.1,0.3-0.2,0.4-0.3,0.5c0.1-0.2,0.1-0.1,0.1-0.4
						c0,0-0.1,0.4-0.2,0.5c0-0.1,0.1-0.3,0.1-0.5l0,0c0.1-0.3,0,0,0-0.1l0.1-0.1c-0.1,0-0.2,0.4-0.2,0.4v0.1c-0.2,0.4,0-0.2-0.1,0
						l0.1-0.4c0,0.1-0.2,0.3-0.2,0.4c0.1-0.3,0.2-0.4,0.3-0.6c0,0-0.1,0-0.1,0.2c0,0,0.1-0.1,0-0.1c-0.1,0.3-0.2,0.4-0.2,0.4
						c0.3-0.7,0-0.2,0.1-0.8c-0.2,0.2-0.1-0.2-0.2-0.1c-0.2,0.6,0,0-0.2,0.6l0,0l0.1-0.4c0-0.2,0.1-0.1,0.1-0.3
						c0-0.1,0.1-0.3,0.1-0.4c-0.1,0.2-0.1,0.3-0.1,0.2l-0.1,0.3c-0.2,0.3,0.1-0.5,0-0.2l0.1-0.2c-0.1,0.1-0.1,0-0.3,0.4
						c0-0.1,0.1-0.2,0.1-0.3c0-0.1-0.3,0.4-0.3,0.1l0.1-0.1c0,0-0.1,0.3-0.1,0.1c0-0.1,0.1-0.1,0.1-0.1s-0.1,0.2-0.1,0.1l0.1-0.2
						c0-0.2-0.2,0.4-0.3,0.4c0.1-0.4,0.1-0.6,0.1-0.6v-0.1c-0.1-0.1-0.2,0.3-0.4,0.4c0.1-0.5-0.1-0.2,0-0.5c0,0.1-0.1,0.3-0.1,0.4
						c0-0.1-0.1,0.3,0-0.1l0,0c0.1-0.4,0.1-0.3,0-0.3l-0.2,0.5c0.2-0.7-0.3,0.2-0.1-0.5c-0.1,0.1-0.1,0.1-0.1,0.2l0.1-0.3
						c0-0.1,0-0.1-0.1-0.1l0.1-0.2l-0.3,0.8l0.1-0.4c-0.1,0,0-0.4-0.2,0c0-0.1,0.1-0.2,0.1-0.2s0-0.3-0.2,0.2c0.1-0.4,0-0.1-0.1,0.1
						l0.1-0.3c-0.1,0.3-0.2,0.4-0.2,0.5c0,0,0.1-0.2,0.1-0.1c0-0.1-0.1,0.2-0.1,0.1l0.1-0.2c0,0,0,0.1-0.1,0.3
						c-0.1,0.1,0-0.1,0.1-0.3c-0.1,0.1-0.1,0.3-0.1,0.3c0-0.1,0.1-0.1,0.1-0.2c0-0.2-0.2,0.3-0.1,0c0-0.1,0-0.1,0-0.2
						c0,0,0.1,0,0,0.1c0.1-0.2,0.1-0.3,0.2-0.6c-0.1,0.2-0.3,0.6-0.3,0.4c0,0,0,0,0-0.1l0,0l0,0V287c0.1-0.2,0-0.1,0-0.1
						c-0.1,0.3-0.1,0.2-0.2,0.4l0,0l0,0l0,0l0,0c-0.1,0.1-0.1,0.2-0.1,0.1c-0.1,0.2-0.1,0.3-0.2,0.4c0.1-0.4,0.1-0.6,0.2-0.8
						c-0.1,0.1-0.1,0.1-0.3,0.6c0,0.1,0-0.1,0.1-0.2c0,0,0,0,0.1-0.1c-0.1,0.1-0.1,0-0.2,0.4c0-0.2,0.1-0.3,0.1-0.3v-0.1
						c0.1-0.6-0.4,0.8-0.3,0.1v0.1c0-0.4-0.3,0.2-0.3-0.3c0-0.1-0.1,0.1-0.2,0.3l0.1-0.3l-0.1,0.3c-0.1,0.2,0.2-0.7,0-0.3l-0.1,0.2
						c0,0-0.1,0.1,0-0.1c0,0-0.1,0.2,0,0.1l0.1-0.1l-0.1,0.2c0-0.1,0.2-0.6,0.2-0.6c0,0.1-0.2,0.4-0.2,0.5c0,0,0,0.1-0.1,0.3v0.1
						c-0.2,0.4-0.3,0.9-0.4,1.2l0.1-0.3l-0.1,0.2l0,0c-0.1,0.2,0,0,0.1-0.1c0,0.1-0.1,0.2-0.1,0.2l0.2-0.4c-0.1,0.2-0.1,0.3-0.1,0.4
						c0.1-0.2,0.1-0.4,0.2-0.5c-0.1,0.2-0.1,0.4,0,0.2c0,0.1-0.1,0.2-0.1,0.2c0.1-0.1,0.1,0,0.2-0.3c-0.1,0.3,0.1,0-0.1,0.4
						c0-0.1,0.1-0.3,0.2-0.3c-0.2,0.5,0,0-0.1,0.6c0.2-0.4,0.1-0.2,0.3-0.4v0.1c0,0,0,0.2,0,0.3c0.1-0.4,0.2-0.4,0.3-0.7
						c-0.1,0.4-0.2,0.4-0.3,0.8c0.1-0.3,0.1-0.3,0.2-0.5c-0.1,0.2,0,0.1-0.1,0.4c0.2-0.5,0-0.1,0.2-0.4c-0.1,0.2-0.1,0.4-0.1,0.3
						C274.4,289.8,274.3,290,274.3,290z M275.3,289.4L275.3,289.4C275.3,289.4,275.2,289.4,275.3,289.4
						C275.2,289.4,275.3,289.4,275.3,289.4z M275.3,289.4L275.3,289.4c0-0.1,0-0.2,0-0.2C275.3,289.3,275.3,289.3,275.3,289.4z
						 M275.8,287.5C275.9,287.5,275.8,287.6,275.8,287.5C275.8,287.6,275.8,287.6,275.8,287.5c0,0.1,0,0.1,0,0.1
						S275.8,287.6,275.8,287.5z"/>
					<path class="st5" d="M275.7,287.9L275.7,287.9L275.7,287.9L275.7,287.9L275.7,287.9z"/>
					<path class="st5" d="M281,290.2L281,290.2L281,290.2L281,290.2z"/>
					<path class="st5" d="M276,290.2v-0.1V290.2z"/>
					<path class="st5" d="M281,291.2L281,291.2L281,291.2z"/>
					<path class="st5" d="M281.2,291.3v0.1C281.2,291.3,281.2,291.3,281.2,291.3z"/>
					<path class="st5" d="M281.2,291.5v-0.1l0,0V291.5z"/>
					<path class="st5" d="M279.4,291.2L279.4,291.2C279.3,291.2,279.3,291.2,279.4,291.2z"/>
					<path class="st5" d="M280.1,290.7c0,0,0,0.1-0.1,0.1C280,290.9,280,290.9,280.1,290.7z"/>
					<path class="st5" d="M278.7,291.3L278.7,291.3L278.7,291.3z"/>
					<path class="st5" d="M280,290.8C280,290.9,280,290.9,280,290.8L280,290.8z"/>
					<path class="st5" d="M281.7,291.7L281.7,291.7L281.7,291.7L281.7,291.7z"/>
					<path class="st5" d="M281.7,291.7L281.7,291.7L281.7,291.7z"/>
					<path class="st5" d="M281.7,291.6L281.7,291.6C281.7,291.7,281.7,291.7,281.7,291.6z"/>
					<path class="st5" d="M281.6,291.6L281.6,291.6C281.5,291.6,281.5,291.6,281.6,291.6z"/>
					<path class="st5" d="M281.5,291.6v0.2V291.6C281.5,291.8,281.6,291.4,281.5,291.6z"/>
					<path class="st5" d="M281.7,290.3L281.7,290.3l0.1-0.2C281.9,289.8,281.8,290.4,281.7,290.3z"/>
					<path class="st5" d="M281.7,290.1c0,0,0.1-0.1,0.1-0.2C281.7,290,281.7,290,281.7,290.1z"/>
					<path class="st5" d="M280.8,289.9l0.1-0.2C280.9,289.6,280.9,289.7,280.8,289.9z"/>
					<polygon class="st5" points="280.2,291 280.2,291.2 280.3,291 					"/>
					<path class="st5" d="M280.7,289.3L280.7,289.3L280.7,289.3z"/>
					<path class="st5" d="M279.3,288.9l-0.1,0.3C279.2,289.1,279.4,288.8,279.3,288.9z"/>
					<path class="st5" d="M278.6,289c0-0.2,0.1-0.3,0-0.1V289z"/>
					<path class="st5" d="M277,287.9v-0.1V287.9z"/>
				</g>
			</g>
		</g>
	</g>
</g>
<path class="st4" d="M289.9,270.2c4.3,8.8,9.6,18.5,19.1,21"/>
<path class="st4" d="M306,372.2c-1.4-7.9-3.1-15.7-5-23.5c-1-4.2-2.1-8.4-4.3-12.2c-2.3-4-5.8-7.2-9.2-10.4
	c-6.2-5.7-12.5-11.5-18.7-17.2"/>
</svg>
