<?xml version="1.0" encoding="utf-8"?>
<!-- Generator: Adobe Illustrator 21.1.0, SVG Export Plug-In . SVG Version: 6.00 Build 0)  -->
<svg version="1.1" id="Layer_1" xmlns="http://www.w3.org/2000/svg" xmlns:xlink="http://www.w3.org/1999/xlink" x="0px" y="0px"
	 viewBox="0 0 500 500" style="enable-background:new 0 0 500 500;" xml:space="preserve">
<style type="text/css">
	.st0{fill:#FFFFFF;}
	.st1{fill:none;stroke:#000000;stroke-width:4;stroke-miterlimit:10;}
	.st2{fill:#FFFFFF;stroke:#000000;stroke-width:3;stroke-miterlimit:10;}
</style>
<g>
	<path class="st0" d="M112,399c-6.1,0-11-4.9-11-11V111c0-6.1,4.9-11,11-11h277c6.1,0,11,4.9,11,11v277c0,6.1-4.9,11-11,11H112z"/>
	<path d="M389,101c5.5,0,10,4.5,10,10v277c0,5.5-4.5,10-10,10H112c-5.5,0-10-4.5-10-10V111c0-5.5,4.5-10,10-10H389 M389,99H112
		c-6.6,0-12,5.4-12,12v277c0,6.6,5.4,12,12,12h277c6.6,0,12-5.4,12-12V111C401,104.4,395.6,99,389,99L389,99z"/>
</g>
<g>
	<path class="st0" d="M111,400c-6.1,0-11-4.9-11-11V112c0-6.1,4.9-11,11-11h277c6.1,0,11,4.9,11,11v277c0,6.1-4.9,11-11,11H111z"/>
	<path d="M388,102c5.5,0,10,4.5,10,10v277c0,5.5-4.5,10-10,10H111c-5.5,0-10-4.5-10-10V112c0-5.5,4.5-10,10-10H388 M388,100H111
		c-6.6,0-12,5.4-12,12v277c0,6.6,5.4,12,12,12h277c6.6,0,12-5.4,12-12V112C400,105.4,394.6,100,388,100L388,100z"/>
</g>
<g>
	<path d="M226,345.6c-5.8,0-10.9-4.1-12.2-9.9l-34-143.4c-1.7-7,2.5-14,9.2-15.7l80.8-20.4c1-0.2,2-0.4,3-0.4
		c5.8,0,10.9,4.1,12.2,9.9l34,143.4c1.6,7-2.5,14-9.2,15.7L229,345.2C228,345.5,227,345.6,226,345.6z"/>
	<path d="M272.7,156.3L272.7,156.3c5.6,0,10.4,3.9,11.8,9.5l34,143.4c1.6,6.7-2.4,13.5-8.9,15.1l-80.8,20.4
		c-0.9,0.2-1.9,0.4-2.8,0.4c-5.6,0-10.4-3.9-11.8-9.5l-34-143.4c-1.6-6.7,2.4-13.5,8.9-15.1l80.8-20.4
		C270.8,156.4,271.8,156.3,272.7,156.3 M272.7,155.3c-1,0-2.1,0.1-3.1,0.4l-80.8,20.4c-7,1.8-11.3,9.1-9.6,16.3l34,143.4
		c1.5,6.1,6.8,10.3,12.7,10.3c1,0,2.1-0.1,3.1-0.4l80.8-20.4c7-1.8,11.3-9.1,9.6-16.3l-34-143.4C284,159.5,278.6,155.3,272.7,155.3
		L272.7,155.3z"/>
</g>
<path class="st1" d="M182.6,161.2c-1.8-0.1-11.9-0.5-18.8,6.8c-0.8,0.8-3.9,4.4-5.1,10c-2,9.9,4,17.6,5,18.8"/>
<path class="st1" d="M317.5,338.4c1.8,0,11.9-0.1,18.4-7.7c0.7-0.9,3.7-4.6,4.6-10.2c1.5-10-4.9-17.3-5.9-18.5"/>
<path class="st1" d="M188.9,145c-3.1-0.5-20.9-3.1-34.1,9.1c-1.5,1.4-7.6,7.3-10.4,17.5c-5,17.9,4.5,33.2,6.2,35.6"/>
<path class="st1" d="M317.9,352.9c3.2,0.2,21.1,0.8,33-12.7c1.4-1.5,6.8-8.1,8.5-18.5c3.1-18.4-7.9-32.5-9.8-34.8"/>
<path class="st2" d="M288.2,301.3l-51.9,13.1c-7,1.8-14.1-2.7-15.8-9.9l-23.2-98c-1.7-7.2,2.6-14.5,9.6-16.3l51.9-13.1
	c7-1.8,14.1,2.7,15.8,9.9l23.2,98C299.6,292.2,295.2,299.5,288.2,301.3z"/>
<circle class="st2" cx="266" cy="320" r="11.5"/>
<ellipse class="st2" cx="265.7" cy="319.5" rx="6.8" ry="7"/>
</svg>
